:version 1.10
:name ASF
:units
  mass 1
  length 1
  angle deg
:documentation
  ASF file generated by Kaydara
:root
  axis xyz
  order  tx ty tz rx ry rz
  position 0 0 0
  orientation 0 0 0
:bonedata
  begin
    id 1
    name RightUpLegDummy
    direction -0.718183 -0.695806 0.00816078
    length 4.904
    axis 0 0 0 xyz
  end
  begin
    id 2
    name RightUpLeg
    direction 3.53373e-006 -0.995788 0.0916898
    length 17.4976
    axis -3.49089 -0.000906625 0.000286804 xyz
    dof rx ry rz
  end
  begin
    id 3
    name RightLeg
    direction 0.00371092 -0.995096 -0.0988419
    length 16.5821
    axis 3.68512 0.0193738 -0.131023 xyz
    dof rx ry rz
  end
  begin
    id 4
    name RightFoot
    direction 0.00079151 -0.46099 0.887405
    length 3.77069
    axis 4.81691e-005 -0.120479 -0.188788 xyz
    dof rx ry rz
  end
  begin
    id 5
    name RightToes
    direction 0.00124746 -0.014064 0.9999
    length 3.85082
    axis 0.000481921 0.542163 -0.142578 xyz
    dof rx ry rz
  end
  begin
    id 6
    name SpineDummy
    direction 8.3039e-015 1 4.57515e-016
    length 4.6813
    axis 0 0 0 xyz
  end
  begin
    id 7
    name Spine
    direction -3.15643e-008 0.999988 0.00495137
    length 10.1015
    axis -0.001389 0.000121418 2.40972e-006 xyz
    dof rx ry rz
  end
  begin
    id 8
    name Spine1
    direction 0 0 0
    length 0
    axis -0.001389 0.000121451 1.30017e-006 xyz
    dof rx ry rz
  end
  begin
    id 9
    name HEadDummy
    direction -1.99912e-008 0.999999 0.00127422
    length 3.43865
    axis -0.001389 0.000121451 1.30017e-006 xyz
  end
  begin
    id 10
    name HEad
    direction -0.0222688 0.980941 0.193023
    length 5.12695
    axis -0.001389 0.000121451 1.30017e-006 xyz
    dof rx ry rz
  end
  begin
    id 11
    name LeftShoulder1Dummy
    direction 0.998891 -0.0402509 -0.0244456
    length 3.5433
    axis -0.001389 0.000121451 1.30017e-006 xyz
  end
  begin
    id 12
    name LeftShoulder1
    direction 0.99951 -0.000327763 0.0313091
    length 4.05031
    axis -0.001389 0.000121451 1.30017e-006 xyz
    dof rx ry rz
  end
  begin
    id 13
    name LeftArm
    direction 0.998561 -0.00100056 -0.0536182
    length 10.3537
    axis -23.1894 0.134784 0.967509 xyz
    dof rx ry rz
  end
  begin
    id 14
    name LeftForeArm
    direction 0.998903 0.00866432 0.046012
    length 8.70632
    axis -9.91835 -0.06569 -0.177794 xyz
    dof rx ry rz
  end
  begin
    id 15
    name LeftHand
    direction 0.992938 -0.0411637 0.11126
    length 5.32135
    axis -0.00960232 -0.00340091 0.185173 xyz
    dof rx ry rz
  end
  begin
    id 16
    name RightShoulderDummy
    direction -0.998891 -0.0402509 -0.0244414
    length 3.5433
    axis -0.001389 0.000121451 1.30017e-006 xyz
  end
  begin
    id 17
    name RightShoulder
    direction -0.99951 -0.000327807 0.0313133
    length 4.05031
    axis 0.215806 0.000203643 -0.0068026 xyz
    dof rx ry rz
  end
  begin
    id 18
    name RightArm
    direction -0.998573 -0.000999564 -0.053403
    length 10.3947
    axis -23.2009 -0.134239 -0.964101 xyz
    dof rx ry rz
  end
  begin
    id 19
    name RightForeArm
    direction -0.998898 0.00868028 0.0461306
    length 8.68355
    axis -9.92322 0.0658061 0.178868 xyz
    dof rx ry rz
  end
  begin
    id 20
    name RightHand
    direction -0.992843 -0.0414603 0.112003
    length 5.28593
    axis -0.00960638 0.00330671 -0.185228 xyz
    dof rx ry rz
  end
  begin
    id 21
    name LeftUpLegDummy
    direction 0.718183 -0.695806 0.00816078
    length 4.904
    axis 0 0 0 xyz
  end
  begin
    id 22
    name LeftUpLeg
    direction -6.81752e-006 -0.995793 0.0916337
    length 17.4976
    axis -3.48766 0.00143442 -0.000524262 xyz
    dof rx ry rz
  end
  begin
    id 23
    name LeftLeg
    direction -0.00601358 -0.995091 -0.0987824
    length 16.5821
    axis 3.68178 -0.00654042 -0.000285133 xyz
    dof rx ry rz
  end
  begin
    id 24
    name LeftFoot
    direction -0.00417578 -0.460984 0.887399
    length 3.77069
    axis 1.87233e-006 4.66016e-005 -8.6538e-006 xyz
    dof rx ry rz
  end
  begin
    id 25
    name LeftToes
    direction 0.00818058 -0.00485161 0.999955
    length 3.85048
    axis 1.06247e-005 4.65869e-005 -8.65513e-006 xyz
    dof rx ry rz
  end
:hierarchy
  begin
    root RightUpLegDummy SpineDummy LeftUpLegDummy
    RightUpLegDummy RightUpLeg
    RightUpLeg RightLeg
    RightLeg RightFoot
    RightFoot RightToes
    SpineDummy Spine
    Spine Spine1
    Spine1 HEadDummy LeftShoulder1Dummy RightShoulderDummy
    HEadDummy HEad
    LeftShoulder1Dummy LeftShoulder1
    LeftShoulder1 LeftArm
    LeftArm LeftForeArm
    LeftForeArm LeftHand
    RightShoulderDummy RightShoulder
    RightShoulder RightArm
    RightArm RightForeArm
    RightForeArm RightHand
    LeftUpLegDummy LeftUpLeg
    LeftUpLeg LeftLeg
    LeftLeg LeftFoot
    LeftFoot LeftToes
  end

:SAMPLES-PER-SECOND 30
:FRAME-RANGE 1-564
:FULLY-SPECIFIED
:DEGREES
18
root  89.3925 39.57 136.521 -10.1164 -80.8448 1.27003
RightUpLeg  17.7103 -0.682616 2.5653
RightLeg  -4.47544 1.56744 -5.3504
RightFoot  -6.58352 -0.241865 4.74034
RightToes  -1.74624e-010 0 -3.6325e-017
Spine  3.5257 1.45716 4.40285
Spine1  2.39054 2.28793 -3.6417
HEad  3.2807 4.97331 -9.03977
LeftShoulder1  3.21309 -2.98072 -43.0944
LeftArm  25.5093 6.59255 -26.2661
LeftForeArm  -6.25869 -5.9966 -18.3795
LeftHand  -1.05146 -2.69613 15.2687
RightShoulder  10.358 9.15359 69.276
RightArm  26.9387 2.058 -4.27629
RightForeArm  6.20857 -2.80605 18.887
RightHand  1.8907 20.9469 7.74145
LeftUpLeg  18.5667 5.40279 2.18099
LeftLeg  -5.37746 -2.72952 2.27853
LeftFoot  -6.04788 -0.110195 3.17159
LeftToes  -6.43926e-010 8.38805e-011 -3.16407e-011
19
root  89.2509 39.5561 136.462 -10.725 -80.6457 2.03721
RightUpLeg  17.647 -0.749783 2.54767
RightLeg  -4.19532 1.41254 -5.30956
RightFoot  -6.90632 -0.224826 4.58982
RightToes  -1.74624e-010 0 -3.6325e-017
Spine  3.31098 1.38338 3.91176
Spine1  2.52232 2.06038 -2.84324
HEad  3.65453 5.26698 -9.19467
LeftShoulder1  3.16215 -2.79058 -43.7233
LeftArm  25.9895 7.02137 -25.4684
LeftForeArm  -6.85928 -6.723 -18.1105
LeftHand  -1.04433 -2.87621 14.8505
RightShoulder  10.2256 9.07297 68.9097
RightArm  31.3137 1.02456 -5.03772
RightForeArm  2.2359 -1.45536 19.3111
RightHand  1.99403 20.3681 8.39099
LeftUpLeg  18.6313 5.31925 2.13186
LeftLeg  -5.4713 -2.75007 2.33475
LeftFoot  -6.16026 -0.10001 3.03036
LeftToes  -6.43926e-010 8.38805e-011 -3.16407e-011
20
root  89.1118 39.5341 136.392 -10.8958 -80.4878 2.24817
RightUpLeg  17.7552 -0.6513 2.71061
RightLeg  -4.02673 1.10125 -5.29904
RightFoot  -7.17263 -0.211844 4.47751
RightToes  -1.74624e-010 0 -3.6325e-017
Spine  3.08971 1.40225 4.07673
Spine1  2.96736 2.15714 -3.16704
HEad  3.54481 6.01232 -9.18154
LeftShoulder1  3.17061 -2.86796 -43.2863
LeftArm  25.0687 7.31036 -25.4829
LeftForeArm  -6.47074 -6.90138 -17.9421
LeftHand  -1.08818 -2.99655 15.2451
RightShoulder  9.66944 8.45297 68.6033
RightArm  33.304 0.88724 -5.07088
RightForeArm  1.89467 -0.572801 19.4161
RightHand  1.6993 19.7316 7.27931
LeftUpLeg  18.6302 5.33473 2.25332
LeftLeg  -5.17381 -2.91694 2.38826
LeftFoot  -6.46575 -0.0844152 2.88078
LeftToes  -6.43926e-010 8.38805e-011 -3.16407e-011
21
root  88.9579 39.5148 136.313 -11.3388 -80.2727 2.73819
RightUpLeg  17.9841 -0.685268 2.87108
RightLeg  -4.02575 0.662842 -5.33546
RightFoot  -7.41415 -0.201176 4.39461
RightToes  -1.74624e-010 0 -3.6325e-017
Spine  3.46906 1.23625 4.13909
Spine1  2.55954 1.99461 -3.16594
HEad  3.83985 4.93493 -9.64796
LeftShoulder1  3.13623 -2.7253 -43.8234
LeftArm  25.2161 7.91884 -24.5768
LeftForeArm  -7.18348 -7.8865 -17.4904
LeftHand  -1.11902 -3.03652 15.5946
RightShoulder  9.32447 8.02319 68.6169
RightArm  32.3318 0.577949 -5.89072
RightForeArm  4.48372 -0.528908 19.299
RightHand  1.92753 19.9294 8.24873
LeftUpLeg  18.634 5.32549 2.34737
LeftLeg  -4.8588 -3.16835 2.43947
LeftFoot  -6.72493 -0.0699481 2.73991
LeftToes  -6.43926e-010 8.38805e-011 -3.16407e-011
22
root  88.7991 39.5068 136.231 -11.0862 -80.042 2.56673
RightUpLeg  17.7995 -1.59317 1.9121
RightLeg  -3.3997 1.81329 -3.66209
RightFoot  -7.82267 -0.150267 3.16068
RightToes  -1.74624e-010 0 -3.6325e-017
Spine  3.05654 1.6403 5.10754
Spine1  3.16881 2.88321 -5.03195
HEad  4.20466 4.29282 -8.58745
LeftShoulder1  3.35001 -3.54314 -41.2337
LeftArm  21.2472 7.65886 -26.3635
LeftForeArm  -4.3136 -5.97917 -17.9788
LeftHand  -1.14767 -3.14183 15.7939
RightShoulder  7.92747 6.24944 68.8814
RightArm  30.7009 0.308877 -5.71944
RightForeArm  5.51755 -1.07486 19.2033
RightHand  1.82431 19.3829 7.96998
LeftUpLeg  18.6323 5.32554 2.56915
LeftLeg  -4.64288 -3.43538 2.48939
LeftFoot  -6.93646 -0.0567651 2.54401
LeftToes  -6.43926e-010 8.38805e-011 -3.16407e-011
